<svg xmlns="http://www.w3.org/2000/svg" xmlns:xlink="http://www.w3.org/1999/xlink" width="500" zoomAndPan="magnify" viewBox="0 0 375 374.999991" height="500" preserveAspectRatio="xMidYMid meet" version="1.0"><defs><g/></defs><path fill="rgb(96.859741%, 28.62854%, 0%)" d="M 288.65625 158.753906 L 230.128906 158.753906 L 225.738281 158.769531 L 213.949219 169.757812 L 288.816406 169.757812 L 300.285156 158.753906 L 288.65625 158.753906 " fill-opacity="1" fill-rule="nonzero"/><path fill="rgb(16.079712%, 14.898682%, 14.898682%)" d="M 288.65625 177.6875 L 230.128906 177.6875 L 225.738281 177.699219 L 213.949219 188.691406 L 288.816406 188.691406 L 300.285156 177.6875 L 288.65625 177.6875 " fill-opacity="1" fill-rule="nonzero"/><path fill="rgb(96.859741%, 28.62854%, 0%)" d="M 288.65625 198.164062 L 230.128906 198.164062 L 225.738281 198.175781 L 213.949219 209.167969 L 288.816406 209.167969 L 300.285156 198.164062 L 288.65625 198.164062 " fill-opacity="1" fill-rule="nonzero"/><path fill="rgb(16.079712%, 14.898682%, 14.898682%)" d="M 288.65625 219.121094 L 230.128906 219.121094 L 225.738281 219.136719 L 213.949219 230.125 L 288.816406 230.125 L 300.285156 219.121094 L 288.65625 219.121094 " fill-opacity="1" fill-rule="nonzero"/><g fill="rgb(0%, 0%, 0%)" fill-opacity="1"><g transform="translate(74.30866, 224.827228)"><g><path d="M 21.308594 -32.503906 L 31.78125 -21.398438 L 40.355469 -21.757812 L 25.910156 -39.273438 L 26.09375 -45.863281 L 39.542969 -46.316406 L 40.175781 -53.085938 L 5.507812 -52.546875 L 4.964844 -45.503906 L 18.328125 -45.863281 L 18.148438 -39.273438 L 0.179688 -19.863281 L 8.9375 -20.042969 Z M 35.933594 -59.046875 L 36.566406 -65.90625 L 11.015625 -65.546875 L 10.382812 -58.683594 Z M 48.394531 -41.984375 L 55.976562 -42.164062 L 55.433594 -22.300781 L 62.296875 -22.300781 L 65.1875 -66.628906 L 56.96875 -66.628906 L 56.335938 -49.835938 L 49.113281 -49.65625 L 50.109375 -66.449219 L 41.890625 -66.269531 L 40.355469 -21.9375 L 47.21875 -22.121094 Z M 15.980469 -15.527344 L 15.347656 -8.667969 L 52.183594 -9.300781 L 51.191406 9.117188 L 58.957031 8.9375 L 60.941406 -16.25 Z M 15.980469 -15.527344 "/></g></g></g><g fill="rgb(0%, 0%, 0%)" fill-opacity="1"><g transform="translate(140.846236, 224.827228)"><g><path d="M 21.9375 -24.015625 C 26.90625 -24.015625 30.335938 -26.09375 32.773438 -28.800781 C 35.121094 -31.417969 36.292969 -34.851562 36.386719 -37.46875 L 36.925781 -49.113281 C 37.289062 -52.546875 36.386719 -55.886719 34.128906 -58.414062 C 31.78125 -60.941406 28.347656 -62.476562 23.746094 -62.476562 L 20.585938 -62.476562 C 11.464844 -62.207031 6.5 -56.246094 6.050781 -48.574219 L 5.507812 -36.925781 C 5.328125 -33.316406 6.410156 -30.246094 8.667969 -27.71875 C 11.015625 -25.097656 14.265625 -23.925781 18.597656 -24.015625 Z M 18.960938 -30.789062 C 15.800781 -30.515625 12.910156 -33.675781 12.910156 -37.105469 L 13.542969 -48.753906 C 13.632812 -52.726562 16.523438 -55.34375 20.3125 -55.617188 L 23.382812 -55.617188 C 28.078125 -55.617188 29.792969 -52.726562 29.703125 -49.113281 L 29.34375 -37.46875 C 29.253906 -36.023438 28.53125 -34.488281 27.355469 -33.132812 C 26.183594 -31.871094 24.558594 -30.789062 21.9375 -30.789062 Z M 63.019531 -67.804688 L 54.804688 -67.625 L 52.363281 -21.398438 L 59.589844 -21.578125 Z M 36.925781 -17.785156 C 31.601562 -17.695312 26.273438 -17.0625 22.390625 -15.167969 C 18.417969 -13.179688 15.710938 -10.113281 15.527344 -4.964844 C 15.078125 0.902344 17.515625 3.972656 21.308594 5.867188 C 25.097656 7.765625 30.425781 8.125 35.570312 8.035156 C 40.539062 8.035156 45.953125 7.582031 50.109375 5.6875 C 54.351562 3.703125 57.332031 0.359375 57.78125 -5.507812 C 58.054688 -10.742188 55.617188 -13.902344 51.824219 -15.710938 C 47.941406 -17.515625 42.703125 -17.785156 36.925781 -17.785156 Z M 36.925781 -11.375 C 40.175781 -11.375 43.609375 -11.648438 46.226562 -10.925781 C 48.664062 -10.292969 50.558594 -8.847656 50.558594 -5.6875 C 50.109375 -2.347656 48.664062 -0.632812 46.046875 0.542969 C 43.425781 1.535156 39.90625 1.804688 35.933594 1.804688 C 32.773438 1.804688 29.523438 1.625 26.90625 0.8125 C 24.558594 -0.269531 22.933594 -1.894531 23.023438 -4.964844 C 23.023438 -8.125 24.917969 -9.839844 27.71875 -10.5625 C 30.425781 -11.375 33.855469 -11.375 36.925781 -11.375 Z M 36.925781 -11.375 "/></g></g></g></svg>